<svg width="18" height="16" viewBox="0 0 18 16" fill="none" xmlns="http://www.w3.org/2000/svg">
<path d="M8.5 15.5C12.6421 15.5 16 12.1421 16 8C16 3.85786 12.6421 0.5 8.5 0.5C4.35786 0.5 1 3.85786 1 8C1 12.1421 4.35786 15.5 8.5 15.5Z" stroke="#E0E0E0"/>
<path d="M8.22081 8.72058L15.8772 0.403675C16.1248 0.134555 16.4167 0 16.7527 0C17.0889 0 17.3808 0.134555 17.6284 0.403675C17.8762 0.672623 18 0.991485 18 1.36026C18 1.72903 17.8762 2.04798 17.6284 2.3171L9.09648 11.5964C8.84873 11.8655 8.55681 12 8.22081 12C7.88473 12 7.59281 11.8655 7.34506 11.5964L3.36656 7.27453C3.11882 7.00542 2.99665 6.68647 3.00007 6.3177C3.00349 5.94893 3.12906 5.63007 3.3768 5.36111C3.62439 5.092 3.91792 4.95744 4.2574 4.95744C4.59688 4.95744 4.89049 5.092 5.13823 5.36111L8.22081 8.72058Z" fill="#E0E0E0"/>
</svg>
